<svg width="120" height="120" viewBox="0 0 120 120" xmlns="http://www.w3.org/2000/svg">
  <!-- Background gradient -->
  <defs>
    <linearGradient id="bgGradient" x1="0%" y1="0%" x2="100%" y2="100%">
      <stop offset="0%" style="stop-color:#2e8555;stop-opacity:1" />
      <stop offset="100%" style="stop-color:#1e6b47;stop-opacity:1" />
    </linearGradient>
    <linearGradient id="brainGradient" x1="0%" y1="0%" x2="100%" y2="100%">
      <stop offset="0%" style="stop-color:#4fc3f7;stop-opacity:1" />
      <stop offset="100%" style="stop-color:#29b6f6;stop-opacity:1" />
    </linearGradient>
    <!-- Animation for neural connections -->
    <linearGradient id="connectionGradient" x1="0%" y1="0%" x2="100%" y2="100%">
      <stop offset="0%" style="stop-color:#ffffff;stop-opacity:0.2" />
      <stop offset="50%" style="stop-color:#ffffff;stop-opacity:1" />
      <stop offset="100%" style="stop-color:#ffffff;stop-opacity:0.2" />
    </linearGradient>
  </defs>
  
  <!-- Main circle background -->
  <circle cx="60" cy="60" r="55" fill="url(#bgGradient)" />
  
  <!-- Animated Brain-like circuit pattern -->
  <path d="M40,45 
           C45,40 55,40 60,45 
           C65,40 75,40 80,45 
           C85,50 85,60 80,65 
           C75,70 65,70 60,65 
           C55,70 45,70 40,65 
           C35,60 35,50 40,45Z" 
        fill="url(#brainGradient)" opacity="0.9">
    <!-- Brain animation -->
    <animate attributeName="opacity" values="0.8;1;0.8" dur="3s" repeatCount="indefinite" />
  </path>
  
  <!-- Animated Neural connections -->
  <line x1="45" y1="50" x2="55" y2="55" stroke="url(#connectionGradient)" stroke-width="1.5">
    <animate attributeName="stroke-opacity" values="0.3;1;0.3" dur="2s" repeatCount="indefinite" />
  </line>
  <line x1="55" y1="55" x2="65" y2="50" stroke="url(#connectionGradient)" stroke-width="1.5">
    <animate attributeName="stroke-opacity" values="0.3;1;0.3" dur="2.5s" repeatCount="indefinite" />
  </line>
  <line x1="65" y1="50" x2="75" y2="55" stroke="url(#connectionGradient)" stroke-width="1.5">
    <animate attributeName="stroke-opacity" values="0.3;1;0.3" dur="1.8s" repeatCount="indefinite" />
  </line>
  <line x1="45" y1="60" x2="55" y2="65" stroke="url(#connectionGradient)" stroke-width="1.5">
    <animate attributeName="stroke-opacity" values="0.3;1;0.3" dur="2.2s" repeatCount="indefinite" />
  </line>
  <line x1="55" y1="65" x2="65" y2="60" stroke="url(#connectionGradient)" stroke-width="1.5">
    <animate attributeName="stroke-opacity" values="0.3;1;0.3" dur="1.9s" repeatCount="indefinite" />
  </line>
  <line x1="65" y1="60" x2="75" y2="65" stroke="url(#connectionGradient)" stroke-width="1.5">
    <animate attributeName="stroke-opacity" values="0.3;1;0.3" dur="2.1s" repeatCount="indefinite" />
  </line>
  
  <!-- Central AI text -->
  <text x="60" y="85" text-anchor="middle" font-family="Arial, sans-serif" font-weight="bold" font-size="24" fill="white">AI</text>
  
  <!-- Decorative elements with animation -->
  <circle cx="45" cy="45" r="2" fill="white" opacity="0.8">
    <animate attributeName="opacity" values="0.5;1;0.5" dur="1.5s" repeatCount="indefinite" />
  </circle>
  <circle cx="75" cy="45" r="2" fill="white" opacity="0.8">
    <animate attributeName="opacity" values="0.5;1;0.5" dur="1.7s" repeatCount="indefinite" />
  </circle>
  <circle cx="45" cy="75" r="2" fill="white" opacity="0.8">
    <animate attributeName="opacity" values="0.5;1;0.5" dur="1.9s" repeatCount="indefinite" />
  </circle>
  <circle cx="75" cy="75" r="2" fill="white" opacity="0.8">
    <animate attributeName="opacity" values="0.5;1;0.5" dur="1.3s" repeatCount="indefinite" />
  </circle>
</svg>